<svg width="188" height="164" viewBox="0 0 188 164" fill="none" xmlns="http://www.w3.org/2000/svg">
<g clip-path="url(#clip0_3212_10851)">
<path d="M147.57 161.252C115.438 144.15 83.3023 127.047 51.1704 109.944C65.6375 73.2974 80.1046 36.647 94.5717 0C125.714 17.9877 156.854 35.9788 187.996 53.9665C174.522 89.7284 161.044 125.49 147.57 161.252V161.252Z" fill="url(#paint0_linear_3212_10851)"/>
<path d="M94.5719 0C77.096 4.38069 59.6201 8.76138 42.1441 13.1421C28.0961 47.089 14.0481 81.0359 0 114.983C17.0569 113.302 34.1137 111.625 51.1706 109.944C65.6377 73.2974 80.1048 36.647 94.5719 0Z" fill="url(#paint1_linear_3212_10851)"/>
<path d="M91.3742 163.084C60.9184 147.049 30.4592 131.018 0 114.983C17.0569 113.302 34.1138 111.625 51.1706 109.944C83.3025 127.047 115.438 144.15 147.57 161.252C128.837 161.862 110.107 162.475 91.3742 163.084Z" fill="url(#paint2_linear_3212_10851)"/>
</g>
<defs>
<linearGradient id="paint0_linear_3212_10851" x1="67.0423" y1="117.025" x2="180.804" y2="40.7931" gradientUnits="userSpaceOnUse">
<stop stop-color="#6AAC5F"/>
<stop offset="0.15" stop-color="#6DAF62"/>
<stop offset="1" stop-color="#7EBE71"/>
</linearGradient>
<linearGradient id="paint1_linear_3212_10851" x1="30.5038" y1="110.657" x2="65.174" y2="1.42066" gradientUnits="userSpaceOnUse">
<stop offset="0.05" stop-color="#74B566"/>
<stop offset="0.91" stop-color="#7EBE71"/>
</linearGradient>
<linearGradient id="paint2_linear_3212_10851" x1="0" y1="136.514" x2="147.57" y2="136.514" gradientUnits="userSpaceOnUse">
<stop stop-color="#75B568"/>
<stop offset="0.94" stop-color="#7EBE71"/>
</linearGradient>
<clipPath id="clip0_3212_10851">
<rect width="188" height="163.084" fill="white"/>
</clipPath>
</defs>
</svg>
