<svg width="168" height="173" viewBox="0 0 168 173" fill="none" xmlns="http://www.w3.org/2000/svg">
<g clip-path="url(#clip0_3213_10868)">
<path d="M168 114.857C167.215 97.4543 166.433 80.0515 165.647 62.6486C150.636 60.9963 135.626 59.34 120.615 57.6876C119.951 40.1121 119.284 22.5365 118.62 4.96102C103.64 3.30866 88.6613 1.65629 73.6822 0C74.2596 17.5677 74.8332 35.1393 75.4107 52.7069C59.6812 50.9722 43.9517 49.2413 28.2222 47.5065C28.4972 64.7406 28.7682 81.9786 29.0432 99.2126C45.0673 101.014 61.0915 102.82 77.1117 104.621C77.7127 122.911 78.3099 141.201 78.9109 159.487C94.1533 160.88 109.392 162.269 124.634 163.663C123.954 145.687 123.275 127.711 122.591 109.739C137.728 111.442 152.868 113.146 168.004 114.849L168 114.857Z" fill="#6BAD60"/>
<path d="M76.5106 53.0994C66.6934 51.9259 56.8762 50.7563 47.059 49.5828C46.8312 36.8898 46.6033 24.1968 46.3794 11.5077C55.4777 7.6731 64.5799 3.83459 73.6782 0C74.621 17.7011 75.5638 35.3983 76.5066 53.0994H76.5106Z" fill="#7EBF71"/>
<path d="M79.6886 158.254C69.9186 161.633 60.1525 165.013 50.3824 168.392C49.6282 150.817 48.8739 133.241 48.1196 115.662C57.9918 111.89 67.8601 108.122 77.7323 104.35C78.3844 122.318 79.0404 140.286 79.6926 158.254H79.6886Z" fill="#7ABA6C"/>
<path d="M29.0351 99.2164C19.544 102.639 10.0529 106.061 0.565696 109.484C0.377131 92.4852 0.188565 75.4827 0 58.4842L28.218 47.5103C28.493 64.7443 28.7641 81.9823 29.0391 99.2164H29.0351Z" fill="#7ABA6C"/>
<path d="M48.1197 115.661C32.2685 113.601 16.4172 111.544 0.569824 109.484C10.061 106.061 19.5521 102.639 29.0393 99.2163C45.2716 100.928 61.5 102.639 77.7324 104.35C67.8602 108.122 57.9919 111.89 48.1197 115.661Z" fill="url(#paint0_linear_3213_10868)"/>
<path d="M96.0191 173C80.8081 171.462 65.5933 169.927 50.3823 168.388L79.6885 158.25C94.6677 160.056 109.647 161.861 124.626 163.667C115.088 166.779 105.553 169.888 96.0152 173H96.0191Z" fill="#7EBF71"/>
<path d="M136.647 124.449C132.059 124.143 127.47 123.837 122.882 123.531C122.776 118.849 122.67 114.166 122.563 109.48C137.708 111.23 152.852 112.977 168 114.728C157.55 117.966 147.097 121.207 136.647 124.445V124.449Z" fill="#77B76A"/>
</g>
<defs>
<linearGradient id="paint0_linear_3213_10868" x1="27.955" y1="115.018" x2="50.1996" y2="98.883" gradientUnits="userSpaceOnUse">
<stop stop-color="#74B55D"/>
<stop offset="0.13" stop-color="#75B660"/>
<stop offset="0.88" stop-color="#7EBE71"/>
</linearGradient>
<clipPath id="clip0_3213_10868">
<rect width="168" height="173" fill="white"/>
</clipPath>
</defs>
</svg>
