<svg width="166" height="162" viewBox="0 0 166 162" fill="none" xmlns="http://www.w3.org/2000/svg">
<path d="M165.352 81.6962C121.666 108.109 77.9792 134.521 34.2926 160.934C33.7636 161.262 33.0705 161.135 32.6874 160.66C21.7977 147.217 10.908 133.792 0 120.367C43.869 93.498 87.738 66.6294 131.607 39.7607C142.953 53.113 154.298 66.4834 165.644 79.8356C166.155 80.4194 166.009 81.2949 165.352 81.6962Z" fill="#6DAF60"/>
<path d="M131.625 39.7424C87.7562 66.611 43.8872 93.4979 0 120.366C14.0271 80.93 28.0725 41.5118 42.0996 2.07529C42.7198 0.342416 44.6716 -0.478418 46.3497 0.287693C74.7688 13.4393 103.206 26.5908 131.625 39.7424Z" fill="url(#paint0_linear_3202_10852)"/>
<defs>
<linearGradient id="paint0_linear_3202_10852" x1="10.126" y1="110.266" x2="95.7854" y2="10.3433" gradientUnits="userSpaceOnUse">
<stop stop-color="#76B769"/>
<stop offset="1" stop-color="#7EBE71"/>
</linearGradient>
</defs>
</svg>
